<svg width="16" height="18" viewBox="0 0 16 18" fill="none" xmlns="http://www.w3.org/2000/svg">
<path fill-rule="evenodd" clip-rule="evenodd" d="M6.02102 1.85998C6.02102 1.76056 6.1016 1.67998 6.20102 1.67998H10.161C10.2604 1.67998 10.341 1.76056 10.341 1.85998V3.29998H7.64078H6.02102V1.85998ZM4.94102 3.29998V1.85998C4.94102 1.1641 5.50514 0.599976 6.20102 0.599976H10.161C10.8569 0.599976 11.421 1.1641 11.421 1.85998V3.29998H15.2008V4.37998H14.6188L13.5388 17.7H2.83601L1.39601 4.37998H0.800781V3.29998H4.94102ZM2.48231 4.37998L3.80555 16.62H12.5428L13.5352 4.37998H2.48231ZM5.1209 14.46V6.54001H6.2009V14.46H5.1209ZM7.64043 6.54001V14.46H8.72043V6.54001H7.64043ZM10.16 14.46V6.54001H11.24V14.46H10.16Z" fill="#8B8B8B"/>
</svg>
