<svg width="40" height="40" viewBox="0 0 40 40" fill="none" xmlns="http://www.w3.org/2000/svg">
<path d="M20.1483 20L19.9824 36.0641" stroke="#5B6773" stroke-width="2" stroke-linecap="round" stroke-linejoin="round"/>
<path d="M34.3574 27.3957V12.6043C34.3574 12.383 34.2986 12.1656 34.1871 11.9744C34.0755 11.7832 33.9152 11.625 33.7225 11.5161L20.5975 4.09765C20.4098 3.99159 20.198 3.93585 19.9824 3.93585C19.7669 3.93585 19.555 3.99159 19.3673 4.09765L6.24235 11.5161C6.04964 11.625 5.88932 11.7832 5.77776 11.9744C5.6662 12.1656 5.60742 12.383 5.60742 12.6043V27.3957C5.60742 27.617 5.6662 27.8344 5.77776 28.0256C5.88931 28.2168 6.04964 28.375 6.24235 28.4839L19.3673 35.9024C19.555 36.0084 19.7669 36.0641 19.9824 36.0641C20.198 36.0641 20.4098 36.0084 20.5975 35.9024L33.7225 28.4839C33.9152 28.375 34.0755 28.2168 34.1871 28.0256C34.2986 27.8344 34.3574 27.617 34.3574 27.3957V27.3957Z" stroke="#5B6773" stroke-width="2" stroke-linecap="round" stroke-linejoin="round"/>
<path d="M34.1859 11.973L20.1479 20.0001L5.7793 11.9713" stroke="#5B6773" stroke-width="2" stroke-linecap="round" stroke-linejoin="round"/>
</svg>
