<svg width="20" height="20" viewBox="0 0 24 24" fill="none" xmlns="http://www.w3.org/2000/svg">
<path d="M11.4984 2.42619L3.93699 3.93846L2.42472 11.4998C2.40051 11.6209 2.40656 11.7461 2.44234 11.8642C2.47812 11.9824 2.54252 12.0899 2.62983 12.1772L12.4223 21.9697C12.4919 22.0393 12.5746 22.0946 12.6656 22.1323C12.7566 22.17 12.8541 22.1894 12.9526 22.1894C13.0511 22.1894 13.1486 22.17 13.2396 22.1323C13.3306 22.0946 13.4133 22.0393 13.4829 21.9697L21.9682 13.4844C22.0379 13.4148 22.0931 13.3321 22.1308 13.2411C22.1685 13.1501 22.1879 13.0526 22.1879 12.9541C22.1879 12.8556 22.1685 12.7581 22.1308 12.6671C22.0931 12.5761 22.0379 12.4934 21.9682 12.4237L12.1758 2.63129C12.0885 2.54398 11.9809 2.47958 11.8628 2.4438C11.7446 2.40802 11.6194 2.40197 11.4984 2.42619V2.42619Z" stroke="black" stroke-width="3" stroke-linecap="round" stroke-linejoin="round"/>
</svg>
